<svg width="246" height="280" viewBox="0 0 246 280" fill="none" xmlns="http://www.w3.org/2000/svg">
<path d="M0.400001 -1.90735e-05H120C157.067 -1.90735e-05 184.8 5.06665 203.2 15.2C221.867 25.0667 231.2 41.8667 231.2 65.6C231.2 102.133 209.2 124 165.2 131.2V132C218.533 138.667 245.2 161.867 245.2 201.6C245.2 230.667 234.267 251.067 212.4 262.8C190.533 274.267 159.067 280 118 280H0.400001V272.4H26.4V7.59998H0.400001V-1.90735e-05ZM104.4 138.4V272.4H123.2C137.867 272.4 148.133 267.333 154 257.2C159.867 247.067 162.8 232.133 162.8 212.4V191.2C162.8 173.6 159.2 160.4 152 151.6C144.8 142.8 132 138.4 113.6 138.4H104.4ZM104.4 7.59998V130.8H114.8C128.667 130.8 138.267 126.667 143.6 118.4C149.2 109.867 152 96.9333 152 79.6V60.8C152 41.0667 149.6 27.3333 144.8 19.6C140 11.6 130.8 7.59998 117.2 7.59998H104.4Z" fill="#0039A4" fill-opacity="0.3"/>
</svg>
