<svg width="38" height="47" viewBox="0 0 38 47" fill="none" xmlns="http://www.w3.org/2000/svg">
<path d="M23.2196 1.76501C16.6063 1.76501 13.2996 8.14368 13.2996 20.901V25.957C13.2996 32.0157 14.1743 36.773 15.9236 40.229C17.673 43.6423 20.2543 45.349 23.6676 45.349C28.361 45.349 32.6703 40.7837 36.5956 31.653H37.7476L37.2996 45.925H36.5956C36.3396 45.4557 36.105 45.1357 35.8916 44.965C35.6783 44.7517 35.3583 44.645 34.9316 44.645C34.5476 44.645 33.0116 44.9863 30.3236 45.669C27.6356 46.309 24.905 46.629 22.1316 46.629C15.177 46.629 9.77963 44.7517 5.93963 40.997C2.1423 37.2423 0.243629 31.6103 0.243629 24.101C0.243629 16.549 2.22763 10.725 6.19563 6.62901C10.2063 2.53301 15.5823 0.485012 22.3236 0.485012C24.9263 0.485012 27.465 0.826345 29.9396 1.50901C32.457 2.14901 33.929 2.46901 34.3556 2.46901C34.7823 2.46901 35.1023 2.38368 35.3156 2.21301C35.529 1.99968 35.7636 1.65835 36.0196 1.18901H36.7236L37.2356 15.077H36.0836C34.1636 10.7677 32.1796 7.48234 30.1316 5.22101C28.1263 2.91701 25.8223 1.76501 23.2196 1.76501Z" fill="#0059FB" fill-opacity="0.3"/>
</svg>
