<svg width="39" height="47" viewBox="0 0 39 47" fill="none" xmlns="http://www.w3.org/2000/svg">
<path d="M23.6 1.776C16.9867 1.776 13.68 8.15466 13.68 20.912V25.968C13.68 32.0267 14.5547 36.784 16.304 40.24C18.0533 43.6533 20.6347 45.36 24.048 45.36C28.7413 45.36 33.0507 40.7947 36.976 31.664H38.128L37.68 45.936H36.976C36.72 45.4667 36.4853 45.1467 36.272 44.976C36.0587 44.7627 35.7387 44.656 35.312 44.656C34.928 44.656 33.392 44.9973 30.704 45.68C28.016 46.32 25.2853 46.64 22.512 46.64C15.5573 46.64 10.16 44.7627 6.32 41.008C2.52267 37.2533 0.624 31.6213 0.624 24.112C0.624 16.56 2.608 10.736 6.576 6.64C10.5867 2.544 15.9627 0.495998 22.704 0.495998C25.3067 0.495998 27.8453 0.837331 30.32 1.52C32.8373 2.16 34.3093 2.48 34.736 2.48C35.1627 2.48 35.4827 2.39467 35.696 2.224C35.9093 2.01067 36.144 1.66933 36.4 1.2H37.104L37.616 15.088H36.464C34.544 10.7787 32.56 7.49333 30.512 5.232C28.5067 2.928 26.2027 1.776 23.6 1.776Z" fill="white" fill-opacity="0.3"/>
</svg>
