<svg width="190" height="147" viewBox="0 0 190 147" fill="none" xmlns="http://www.w3.org/2000/svg">
<path d="M1.76394 93.4198L21.7172 81.8998L22.4212 83.1192L16.546 86.5112L37.538 122.87L39.5334 121.718C42.6742 119.905 44.6136 117.504 45.3518 114.516C46.127 111.507 46.3232 107.452 45.9407 102.352L47.1046 101.68L53.5395 115.258L24.1639 132.218L23.4599 130.998L26.7301 129.11L5.73805 92.7512L2.46794 94.6392L1.76394 93.4198ZM88.1836 95.256L75.5465 102.552L72.6008 98.8579C72.863 100.677 72.6375 102.335 71.9244 103.83C71.2269 105.268 69.7328 106.648 67.4418 107.97C61.7145 111.277 57.0695 109.845 53.5069 103.674L43.8749 86.991L40.771 88.783L40.195 87.7854L53.608 80.0414L64.584 99.0524C65.864 101.269 66.8545 102.644 67.5554 103.175C68.2933 103.685 69.1241 103.673 70.0479 103.14C71.0086 102.585 71.5278 101.522 71.6055 99.9499C71.6832 98.3778 71.1353 96.5756 69.962 94.5433L60.17 77.583L57.6204 79.055L57.0444 78.0574L69.9032 70.6334L84.5592 96.0183L87.6076 94.2583L88.1836 95.256ZM94.6477 52.5042L95.6557 50.666C95.216 49.3925 94.4419 49.0758 93.3334 49.7158C91.7446 50.6331 91.6541 52.3112 93.0621 54.7499C93.6168 55.7106 94.3861 56.7445 95.3701 57.8514C99.2663 58.1146 102.068 59.7242 103.774 62.6802C105.46 65.5993 105.756 68.4584 104.662 71.2576C103.568 74.0567 101.285 76.4589 97.8116 78.4643C96.3706 79.2963 94.7887 80.0125 93.0662 80.6129C92.0377 82.5862 91.6728 83.8314 91.9714 84.3488C92.2701 84.8661 93.6018 84.442 95.9667 83.0767L101.62 79.8127C110.008 74.97 115.94 75.5602 119.418 81.5831C121.295 84.8347 121.503 88.1388 120.041 91.4953C118.638 94.8673 115.257 98.1 109.9 101.193C100.773 106.463 95.0682 107.121 92.7855 103.167C91.5482 101.024 92.1175 98.7244 94.4933 96.2688L98.6829 95.8453C99.0059 97.0875 99.4448 98.189 99.9995 99.1497C101.834 102.327 105.116 102.551 109.846 99.8203C112.728 98.1563 114.636 96.3405 115.569 94.373C116.502 92.4054 116.51 90.6272 115.593 89.0383C114.676 87.4494 113.577 86.6552 112.296 86.6556C111.073 86.6716 109.058 87.4903 106.25 89.1117L100.874 92.2157C97.8806 93.9437 95.4494 94.6822 93.5802 94.4312C91.7109 94.1802 90.3603 93.3341 89.5283 91.8931C88.6749 90.4151 88.4328 88.929 88.8019 87.435C89.1497 85.904 90.09 83.7353 91.6228 80.9289C86.6325 82.1842 82.8681 80.6133 80.3294 76.2162C78.7294 73.4449 78.4364 70.6334 79.4504 67.7817C80.4644 64.93 82.9667 62.3521 86.9574 60.0481C89.3591 58.6615 91.6766 57.9393 93.9096 57.8818C93.1119 57.0121 92.4784 56.1708 92.009 55.3579C90.8144 53.2887 90.5046 51.4722 91.0798 49.9084C91.655 48.3447 92.6262 47.1681 93.9933 46.3788C95.3605 45.5895 96.6639 45.3296 97.9034 45.5993C99.1586 45.8107 100.149 46.5445 100.874 47.8009C101.6 49.0572 101.811 50.1914 101.509 51.2036C101.185 52.1788 100.543 52.9437 99.5818 53.4984C98.6581 54.0317 97.7435 54.2395 96.838 54.1218C95.9481 53.9459 95.218 53.4067 94.6477 52.5042ZM88.8815 69.6528L90.6095 72.6458C92.0388 75.1215 93.2127 76.6854 94.1312 77.3376C95.0866 77.9684 95.9892 78.0384 96.8391 77.5478C97.7259 77.0358 98.1087 76.2482 97.9876 75.185C97.882 74.0635 97.0506 72.1541 95.4932 69.4567L93.9252 66.7408C92.2612 63.8587 90.9885 62.0809 90.107 61.4074C89.2041 60.697 88.3093 60.5978 87.4225 61.1098C86.5726 61.6004 86.2033 62.4541 86.3146 63.6708C86.4045 64.8506 87.2602 66.8446 88.8815 69.6528ZM108.94 49.8688L107.994 49.3809C110.129 45.1429 110.545 41.8969 109.244 39.643C108.561 38.4605 107.679 38.0834 106.596 38.5116L105.516 42.0172C104.627 42.1852 103.677 42.118 102.665 41.8156C101.668 41.4549 100.861 40.7387 100.242 39.6672C99.6235 38.5956 99.5258 37.445 99.949 36.2153C100.351 34.9487 101.235 33.9207 102.603 33.1314C104.007 32.3207 105.429 32.1397 106.871 32.5884C108.328 32.9789 109.537 34.0055 110.497 35.6682C112.587 39.2894 112.069 44.0229 108.94 49.8688ZM136.778 49.8335L138.385 48.9055L135.921 44.6377C133.894 41.1274 132.336 38.8984 131.247 37.9506C130.174 36.9446 129.083 36.7616 127.974 37.4016C127.309 37.7856 126.806 38.3223 126.465 39.0118C126.14 39.6431 126.159 40.2727 126.521 40.9009C126.863 41.4921 127.325 42.0378 127.91 42.5379L129.296 41.7379C130.039 42.3432 130.731 43.2001 131.371 44.3087C131.99 45.3802 132.072 46.5891 131.617 47.9354C131.142 49.2447 130.202 50.3046 128.797 51.1153C125.62 52.95 123.146 52.3339 121.375 49.267C118.751 44.7221 121.3 40.2203 129.023 35.7616C133.42 33.223 136.887 32.2311 139.425 32.7861C141.978 33.2828 144.406 35.5264 146.71 39.5171L153.206 50.7685C154.316 52.6899 155.406 53.3413 156.478 52.7226C157.734 51.9973 157.374 49.6677 155.399 45.7338L156.262 45.3092C157.991 48.6462 158.672 51.2337 158.305 53.0717C157.937 54.9097 156.534 56.5327 154.095 57.9407C149.661 60.5007 146.323 60.6056 144.079 58.2552C144.409 59.9367 144.286 61.3873 143.709 62.6071C143.132 63.8268 141.92 64.9701 140.073 66.0367C134.604 69.1941 130.579 68.5372 127.998 64.0662C126.483 61.4428 126.483 59.0533 127.998 56.8979C129.528 54.6843 132.454 52.3295 136.778 49.8335ZM138.497 57.9308C139.606 59.8522 140.413 61.0367 140.918 61.4843C141.459 61.9106 142.007 61.9637 142.562 61.6437C143.153 61.3024 143.422 60.5312 143.369 59.3301C143.332 58.0707 142.833 56.6096 141.873 54.9468L138.897 49.7923L138.509 50.0163C136.218 51.3389 136.043 53.6815 137.985 57.044L138.497 57.9308ZM158.798 43.9189L148.718 26.4598L145.67 28.2198L145.094 27.2221L148.142 25.4621L144.014 18.3122L152.851 9.81064L158.451 19.5101L165.657 15.3501L166.233 16.3478L159.027 20.5078L169.811 39.1862C170.814 40.9229 171.716 42.1017 172.518 42.7226C173.357 43.3222 174.331 43.302 175.439 42.662C176.548 42.022 177.188 40.913 177.361 39.3352C177.571 37.736 177.251 35.901 176.4 33.8303L177.406 33.3971C178.583 36.1174 178.943 38.619 178.487 40.902C178.011 43.148 176.239 45.1563 173.172 46.927C170.105 48.6976 167.407 49.4426 165.077 49.1619C162.747 48.8812 160.654 47.1335 158.798 43.9189Z" fill="white" fill-opacity="0.2"/>
</svg>
