<svg width="58" height="59" viewBox="0 0 58 59" fill="none" xmlns="http://www.w3.org/2000/svg">
<path d="M0.763937 19.9198L17.3362 10.3518C22.4723 7.38645 26.7205 5.86984 30.0807 5.80196C33.4566 5.67579 36.0939 7.257 37.9925 10.5456C40.9152 15.6078 39.6161 20.3977 34.0953 24.9154L34.1593 25.0262C42.0827 21.6833 47.6338 22.7647 50.8124 28.2703C53.1378 32.2979 53.2548 35.9993 51.1635 39.3744C49.0509 42.7126 45.1494 46.0244 39.4591 49.3097L23.1639 58.7177L22.5559 57.6646L26.1586 55.5846L4.9746 18.8929L1.37194 20.9729L0.763937 19.9198ZM26.2466 30.7771L36.9666 49.3446L39.5716 47.8406C41.6039 46.6673 42.6211 45.1439 42.6234 43.2705C42.6256 41.397 41.8374 39.0931 40.2587 36.3588L38.5627 33.4212C37.1547 30.9825 35.5999 29.4415 33.8982 28.7981C32.1966 28.1547 30.071 28.5691 27.5214 30.0411L26.2466 30.7771ZM15.7826 12.6529L25.6386 29.724L27.0797 28.892C29.0011 27.7826 30.0006 26.4419 30.0783 24.8698C30.1716 23.2394 29.5249 21.2233 28.1382 18.8215L26.6342 16.2165C25.0556 13.4822 23.6244 11.7712 22.3406 11.0836C21.0355 10.3591 19.4407 10.5409 17.5562 11.6289L15.7826 12.6529Z" fill="#0059FB" fill-opacity="0.3"/>
</svg>
