<svg width="57" height="59" viewBox="0 0 57 59" fill="none" xmlns="http://www.w3.org/2000/svg">
<path d="M0.144308 19.9307L16.7166 10.3627C21.8527 7.39738 26.1009 5.88077 29.4611 5.81288C32.837 5.68672 35.4742 7.26793 37.3729 10.5565C40.2956 15.6187 38.9965 20.4087 33.4757 24.9263L33.5397 25.0372C41.4631 21.6943 47.0141 22.7756 50.1928 28.2812C52.5181 32.3088 52.6352 36.0102 50.5439 39.3853C48.4313 42.7236 44.5298 46.0353 38.8394 49.3207L22.5443 58.7287L21.9363 57.6756L25.539 55.5956L4.35497 18.9038L0.752308 20.9838L0.144308 19.9307ZM25.627 30.788L36.347 49.3556L38.952 47.8516C40.9842 46.6782 42.0015 45.1548 42.0038 43.2814C42.006 41.4079 41.2178 39.1041 39.6391 36.3697L37.9431 33.4322C36.5351 30.9934 34.9803 29.4524 33.2786 28.809C31.577 28.1657 29.4513 28.58 26.9018 30.052L25.627 30.788ZM15.163 12.6638L25.019 29.7349L26.46 28.9029C28.3815 27.7936 29.381 26.4528 29.4587 24.8807C29.552 23.2503 28.9053 21.2342 27.5186 18.8324L26.0146 16.2274C24.436 13.4931 23.0047 11.7821 21.721 11.0946C20.4159 10.3701 18.8211 10.5518 16.9366 11.6398L15.163 12.6638Z" fill="white" fill-opacity="0.3"/>
</svg>
