<svg width="209" height="100" viewBox="0 0 209 100" fill="none" xmlns="http://www.w3.org/2000/svg">
<path d="M29.8891 93.743C31.9498 93.1909 33.614 92.1486 34.882 90.6163C36.1911 89.0728 36.5475 87.1884 35.9512 84.9629C35.3438 82.6962 34.0146 81.1971 31.9634 80.4658C29.9534 79.7234 27.2458 79.3446 23.8405 79.3294C20.4654 79.262 17.9682 79.0918 16.3491 78.8189C14.7712 78.535 13.1999 78.0284 11.6351 77.2992C8.50572 75.8408 6.33916 72.8655 5.13548 68.3733C4.15266 64.7054 4.60608 61.2047 6.49574 57.8714C8.42661 54.527 11.6588 52.2475 16.1922 51.0328C18.3764 50.4475 20.7315 50.1698 23.2573 50.1998C25.8133 50.1775 27.3798 50.089 27.9568 49.9344C28.5337 49.7798 28.9385 49.2297 29.171 48.2839L29.851 48.1017L33.6297 60.4733L32.6406 60.7383C29.7017 57.6828 26.8529 55.3762 24.0944 53.8184C21.3661 52.2084 18.7243 51.7457 16.1691 52.4303C13.6551 53.104 11.8576 54.2261 10.7766 55.7967C9.68461 57.3261 9.40362 59.08 9.93368 61.0582C10.4527 62.9952 11.68 64.2786 13.6157 64.9084C15.5815 65.486 17.8685 65.7787 20.4767 65.7866C23.085 65.7944 24.7931 65.8226 25.6012 65.8711C26.4505 65.9086 27.4923 66.0049 28.7265 66.1601C29.9909 66.263 31.0397 66.4679 31.8728 66.7747C32.7361 67.0293 33.6587 67.4226 34.6405 67.9546C35.6525 68.4343 36.5011 69.0462 37.1863 69.7902C38.8291 71.4703 40.0149 73.6703 40.7438 76.3904C41.9364 80.8414 41.4959 84.8023 39.4223 88.2733C37.3788 91.692 34.0904 94.0087 29.557 95.2235C27.2078 95.8529 24.4256 96.2671 21.2102 96.4661C18.036 96.654 16.284 96.7922 15.9543 96.8805C15.3774 97.0351 14.9866 97.8024 14.7822 99.1824L13.9167 99.4143L9.35616 84.8669L10.4071 84.5853C13.1812 87.6849 16.3284 90.1987 19.8486 92.1266C23.4101 94.0435 26.7569 94.5823 29.8891 93.743ZM64.3701 72.18L62.9621 66.9253C61.8909 62.9277 60.8858 60.0829 59.9465 58.391C59.0375 56.6469 57.7999 55.9846 56.2338 56.4042C55.3271 56.6472 54.6571 57.1138 54.2236 57.8042C53.8204 58.4423 53.6552 59.3921 53.7282 60.6535C53.8542 62.6075 54.4252 65.4803 55.4412 69.2718L56.7332 74.0937C57.9369 78.5859 58.7838 81.2523 59.274 82.0927C59.8055 82.9221 60.2927 83.5866 60.7358 84.0863C61.4542 84.9539 62.4728 85.211 63.7916 84.8577C65.3989 84.427 66.2014 83.2181 66.199 81.231C66.2165 79.8128 65.6069 76.7958 64.3701 72.18ZM63.9661 86.0035C58.8145 87.3839 54.5665 87.1087 51.2222 85.1778C47.8778 83.2469 45.5486 79.8293 44.2344 74.925C42.9093 69.9794 43.2946 65.8124 45.3903 62.4239C47.5162 58.9831 51.1343 56.578 56.2447 55.2087C61.3551 53.8394 65.4986 54.0543 68.6752 55.8534C71.8407 57.6114 74.0971 61.0043 75.4443 66.0323C78.2602 76.5415 74.4342 83.1986 63.9661 86.0035ZM75.4802 52.3073L74.692 51.5909C77.8511 48.0499 79.0939 45.0225 78.4203 42.5085C78.0669 41.1897 77.3118 40.5969 76.1549 40.7302L74.2045 43.8369C73.3029 43.7692 72.4024 43.4584 71.503 42.9043C70.6338 42.2979 70.0391 41.3972 69.7188 40.202C69.3986 39.0068 69.602 37.8701 70.329 36.7919C71.045 35.6724 72.1654 34.9084 73.6903 34.4998C75.2564 34.0802 76.6776 34.2736 77.9538 35.0801C79.2602 35.8343 80.1618 37.1388 80.6588 38.9933C81.741 43.0322 80.0148 47.4702 75.4802 52.3073ZM113.503 40.529L113.801 41.6417L106.438 72.768L107.242 72.5526C110.704 71.625 113.181 69.9895 114.673 67.6461C116.165 65.3027 116.921 61.9418 116.941 57.5636L117.806 57.3317L120.213 70.2697L94.2489 77.2267L94.0004 76.2994L101.561 44.9215L100.881 45.1037C96.7183 46.219 93.995 47.6776 92.7109 49.4793C91.468 51.27 90.8041 54.562 90.7192 59.3553L89.9155 59.5707L87.5388 47.486L113.503 40.529ZM112.088 22.7535L127.234 18.6952L139.359 63.9469L142.821 63.0193L143.119 64.132L124.759 69.0517L124.46 67.9389L127.861 67.0279L116.034 22.8889L112.386 23.8662L112.088 22.7535ZM155.263 45.3076L157.055 44.8272L155.78 40.0671C154.731 36.1519 153.803 33.5957 152.996 32.3983C152.22 31.1487 151.213 30.6896 149.977 31.0209C149.235 31.2196 148.61 31.6079 148.102 32.1857C147.625 32.7112 147.48 33.3243 147.668 34.0249C147.844 34.6843 148.15 35.3312 148.585 35.9655L150.131 35.5514C150.692 36.3285 151.139 37.3353 151.47 38.5717C151.79 39.7669 151.557 40.9558 150.769 42.1386C149.971 43.2801 148.789 44.0607 147.223 44.4803C143.678 45.43 141.448 44.1945 140.531 40.7739C139.173 35.7047 142.801 32.0161 151.414 29.7081C156.318 28.394 159.924 28.3334 162.232 29.5262C164.569 30.6667 166.334 33.4625 167.527 37.9135L170.889 50.4628C171.464 52.6058 172.348 53.5172 173.543 53.197C174.945 52.8215 175.2 50.4782 174.31 46.167L175.254 45.9804C176.061 49.6513 176.049 52.3269 175.218 54.0071C174.387 55.6874 172.612 56.892 169.892 57.6208C164.946 58.946 161.694 58.183 160.135 55.3321C160.019 57.0417 159.525 58.411 158.652 59.44C157.779 60.4689 156.312 61.2595 154.252 61.8116C148.152 63.446 144.434 61.7698 143.098 56.783C142.314 53.8569 142.932 51.5489 144.953 49.8589C147.004 48.1167 150.441 46.5996 155.263 45.3076ZM154.827 53.5739C155.401 55.717 155.874 57.07 156.246 57.633C156.659 58.1849 157.175 58.3781 157.793 58.2124C158.452 58.0358 158.912 57.3605 159.171 56.1866C159.461 54.9605 159.358 53.4201 158.861 51.5655L157.32 45.8163L156.888 45.9323C154.332 46.617 153.557 48.8345 154.562 52.5848L154.827 53.5739ZM191.474 21.492C189.949 21.9006 188.874 23.2486 188.25 25.536C187.626 27.8235 187.679 30.3272 188.408 33.0472L192.847 49.6148L197.236 48.4387L197.534 49.5515L178.247 54.7196L177.949 53.6068L181.349 52.6958L174.06 25.4953L170.66 26.4063L170.362 25.2936L185.261 21.3016L186.851 27.2362C186.823 24.9908 187.423 23.1074 188.65 21.5861C189.865 20.0236 191.442 18.9828 193.379 18.4638C195.316 17.9447 197.031 18.0815 198.524 18.874C200.048 19.6142 201.08 20.9941 201.621 23.0135C202.151 24.9917 202.106 26.638 201.487 27.9525C200.867 29.267 199.61 30.1782 197.714 30.6862C195.859 31.1831 194.313 30.9349 193.075 29.9414C191.878 28.937 191.317 27.2542 191.391 24.8933L193.617 24.297C194.084 21.919 193.369 20.984 191.474 21.492Z" fill="white" fill-opacity="0.2"/>
</svg>
